<?xml version="1.0" encoding="UTF-8" standalone="no"?>
<svg
   viewBox="0 0 348 348"
   fill="none"
   version="1.1"
   id="svg838"
   sodipodi:docname="xobekuJ ehT.svg"
   inkscape:version="1.1.1 (3bf5ae0d25, 2021-09-20)"
   xmlns:inkscape="http://www.inkscape.org/namespaces/inkscape"
   xmlns:sodipodi="http://sodipodi.sourceforge.net/DTD/sodipodi-0.dtd"
   xmlns="http://www.w3.org/2000/svg"
   xmlns:svg="http://www.w3.org/2000/svg">
  <defs
     id="defs842" />
  <sodipodi:namedview
     id="namedview840"
     pagecolor="#ffffff"
     bordercolor="#666666"
     borderopacity="1.0"
     inkscape:pageshadow="2"
     inkscape:pageopacity="0.0"
     inkscape:pagecheckerboard="0"
     showgrid="false"
     inkscape:snap-global="false"
     inkscape:zoom="1.5909903"
     inkscape:cx="173.47686"
     inkscape:cy="138.59293"
     inkscape:window-width="1920"
     inkscape:window-height="1001"
     inkscape:window-x="-9"
     inkscape:window-y="-9"
     inkscape:window-maximized="1"
     inkscape:current-layer="svg838" />
  <path
     d="M 341.992,5.776 H 5.078997 v 337.67 H 341.991 Z"
     stroke-width="2"
     stroke="#000000"
     id="path834" />
  <path
     d="m 314.337,40.554 c 0,-8.376 -6.966,-15.165 -15.56,-15.165 -4.126,0 -8.084,1.597 -11.001,4.441 -2.918,2.844 -4.558,6.702 -4.558,10.724 0,8.376 6.966,15.165 15.56,15.165 8.593,0 15.559,-6.79 15.559,-15.165 z"
     stroke-width="2"
     stroke="#000000"
     id="path836" />
  <path
     id="path1080"
     style="fill:#000000;stroke-width:0.271168"
     d="m 53.871087,204.41406 c -1.01291,0.0523 -0.25525,0.0952 1.6836,0.0957 1.93886,5e-4 2.76773,-0.041 1.84179,-0.0937 -0.92594,-0.0528 -2.51247,-0.0543 -3.52539,-0.002 z m -5.56836,0.28125 c -0.33557,0.0646 -0.0618,0.11719 0.60938,0.11719 0.67113,0 0.94494,-0.0526 0.60937,-0.11719 -0.33558,-0.0646 -0.88318,-0.0646 -1.21875,0 z m 13.28711,0 c -0.33557,0.0646 -0.0618,0.11719 0.60938,0.11719 0.67113,0 0.94494,-0.0526 0.60937,-0.11719 -0.33557,-0.0646 -0.88318,-0.0646 -1.21875,0 z m -16.27148,0.28321 c -0.18643,0.0752 -0.033,0.13671 0.33984,0.13671 0.37286,0 0.52432,-0.0615 0.33789,-0.13671 -0.18643,-0.0752 -0.4913,-0.0752 -0.67773,0 z m 19.79492,0 c -0.18643,0.0752 -0.033,0.13671 0.33985,0.13671 0.37286,0 0.52627,-0.0615 0.33984,-0.13671 -0.18643,-0.0752 -0.49326,-0.0752 -0.67969,0 z m -22.9082,0.5332 c -0.26383,0.0688 -0.11344,0.13172 0.33398,0.13672 0.44741,0.006 0.66406,-0.0507 0.48047,-0.125 -0.18359,-0.0743 -0.55061,-0.0804 -0.81445,-0.0117 z m 26.02734,0.002 c -0.261,0.0682 -0.0474,0.12305 0.47461,0.12305 0.52204,0 0.73561,-0.0548 0.47461,-0.12305 -0.261,-0.0682 -0.68822,-0.0682 -0.94922,0 z m -28.0664,0.2793 c -0.18643,0.0753 -0.033,0.13672 0.33984,0.13672 0.37286,0 0.52432,-0.0615 0.33789,-0.13672 -0.18643,-0.0752 -0.4913,-0.0752 -0.67773,0 z m 30.09961,0 c -0.18642,0.0753 -0.033,0.13672 0.33984,0.13672 0.37286,0 0.52627,-0.0615 0.33984,-0.13672 -0.18642,-0.0752 -0.49325,-0.0752 -0.67968,0 z m -33.30665,0.75391 c -0.0942,-0.004 -0.2029,0.0136 -0.30078,0.0527 -0.21632,0.0865 -0.15182,0.15106 0.16407,0.16406 0.28581,0.0118 0.44556,-0.0525 0.35546,-0.14258 -0.0451,-0.0451 -0.12454,-0.0703 -0.21875,-0.0742 z m 37.41993,0 c -0.0942,-0.004 -0.20096,0.0136 -0.29883,0.0527 -0.21632,0.0865 -0.15184,0.15106 0.16406,0.16406 0.28581,0.0118 0.44557,-0.0525 0.35547,-0.14258 -0.0451,-0.0451 -0.1265,-0.0703 -0.2207,-0.0742 z m -18.95118,0.11523 c -1.36143,0.006 -2.70775,0.0504 -4.02929,0.13281 -2.33696,0.14569 -5.18686,0.45259 -6.33399,0.6836 -2.08821,0.42052 -4.67362,1.23026 -5.01172,1.56836 -0.099,0.0989 -0.58002,0.17968 -1.06835,0.17968 -0.48834,0 -0.95878,0.11519 -1.04688,0.25782 -0.0881,0.14262 -0.34325,0.18911 -0.56641,0.10351 -0.81464,-0.31261 -4.96153,0.54455 -8.8457,1.82813 -8.04197,2.65758 -14.98389,6.32736 -21.85937,11.54687 v 7.86914 c 0.83245,-0.69273 1.78847,-1.48676 1.84179,-1.54101 0.23075,-0.23487 2.01219,-1.51564 2.44141,-1.75586 0.62758,-0.35122 0.28573,-0.0392 -1.62695,1.48632 -0.77575,0.61873 -1.71811,1.46645 -2.65625,2.32813 v 6.70508 c 0.13692,-0.0824 0.25494,-0.14194 0.41796,-0.26172 l 1.01758,-0.74805 -0.74609,0.81641 c -0.40515,0.44332 -0.6166,0.71966 -0.68945,0.86719 v 0.11718 c 0.13481,0.006 0.68561,-0.38712 1.59765,-1.1875 3.86389,-3.3908 9.22274,-7.31678 12.31055,-9.01562 0.44743,-0.24616 1.48635,-0.83091 2.30664,-1.30078 4.37345,-2.5052 14.93864,-6.5083 14.25391,-5.40039 -0.10203,0.16509 -0.39314,0.30078 -0.64649,0.30078 -0.58124,0 -4.32183,1.27994 -7.50781,2.57031 -7.34061,2.97304 -15.27939,8.19458 -20.06641,13.19727 -1.044,1.09103 -1.50269,1.62915 -1.01953,1.19531 0.97741,-0.87764 1.53614,-0.75575 0.72461,0.1582 -0.51495,0.57987 -0.51325,0.58166 0.0781,0.27149 0.32726,-0.17164 0.66856,-0.43254 0.75976,-0.58008 0.0912,-0.14754 0.43445,-0.40816 0.76172,-0.58008 0.49816,-0.26169 0.47198,-0.19056 -0.15234,0.44141 -1.12024,1.13396 -0.89654,1.38891 0.35156,0.40039 0.60345,-0.47794 1.17302,-0.79378 1.26562,-0.70118 0.0925,0.0926 0.0349,0.16797 -0.1289,0.16797 -0.16384,0 -0.55837,0.36703 -0.87696,0.81446 -0.6079,0.85371 -0.34409,1.11752 0.38672,0.38672 0.23437,-0.23437 0.42578,-0.34816 0.42578,-0.25196 0,0.0962 1.04222,-0.62733 2.31446,-1.60937 7.70362,-5.94641 14.10727,-9.45443 21.68554,-11.87891 4.35691,-1.39388 4.99967,-1.55944 7.76172,-1.98633 4.53143,-0.70035 4.84571,-0.73806 4.84571,-0.59179 0,0.0766 -1.18844,0.34752 -2.64258,0.60351 -4.5388,0.79903 -11.60921,2.81249 -14.3457,4.08399 -0.46997,0.21837 -0.9327,0.39648 -1.0293,0.39648 -0.50296,0 -7.56031,3.72812 -9.59375,5.06836 -3.94381,2.59913 -8.45313,6.39391 -8.45313,7.11328 0,0.39183 0.17269,0.36851 0.91993,-0.12109 0.34659,-0.22707 0.83672,-0.33273 1.08789,-0.23633 0.42732,0.16405 0.42716,0.20726 -0.004,0.68359 -0.64996,0.7182 -0.23137,0.63075 0.81836,-0.16992 1.23989,-0.94572 1.58303,-0.84903 0.44336,0.125 -1.35317,1.15649 -0.86797,1.27498 0.60742,0.14844 1.5424,-1.17771 1.90065,-1.24142 0.61133,-0.10938 -1.10696,0.97192 -1.31082,1.64374 -0.24414,0.80469 0.99215,-0.78043 1.41138,-0.70325 0.64062,0.11719 -0.8224,0.8754 -0.44856,0.8754 0.5918,0 0.44312,-0.37286 0.94806,-0.67588 1.12305,-0.67188 0.17499,0.004 -0.10887,0.36724 -0.63086,0.80664 -1.10411,0.92941 -0.8554,1.10774 0.2832,0.20313 7.4197,-5.89488 16.63343,-10.2596 25.07227,-11.87891 0.89486,-0.17171 2.17651,-0.42128 2.84765,-0.55469 0.67114,-0.13339 3.5374,-0.29507 6.3711,-0.35937 l 5.15234,-0.11719 -4.20313,0.25782 c -6.74161,0.41226 -15.15544,2.30231 -20.0664,4.50976 -1.77168,0.79636 -6.91108,3.32659 -7.72852,3.80469 -2.94797,1.72421 -6.91624,4.7654 -6.61328,5.06836 0.0863,0.0863 0.69456,-0.27071 1.35156,-0.79297 0.65702,-0.52226 1.3685,-0.95017 1.58204,-0.95117 0.21354,-0.001 -0.12047,0.3898 -0.74415,0.86914 -1.48881,1.14426 -1.47339,1.56163 0.0176,0.47265 3.50748,-2.56182 9.06011,-5.7781 12.00586,-6.95507 2.84793,-1.13791 4.61661,-1.62838 4.35742,-1.20899 -0.0857,0.1386 -0.49274,0.33064 -0.90429,0.42774 -0.98382,0.23205 -4.12872,1.52101 -4.8086,1.9707 -0.8428,0.55745 0.1069,0.44164 1.2168,-0.14844 0.51978,-0.27635 1.43468,-0.65909 2.03125,-0.84961 0.59657,-0.19051 1.23539,-0.46688 1.41992,-0.61328 0.18453,-0.14637 0.51254,-0.19813 0.72852,-0.11523 0.21597,0.0829 0.42966,0.0551 0.47656,-0.0625 0.1243,-0.31168 2.08374,-0.5749 2.25195,-0.30274 0.0785,0.12697 0.56293,0.11438 1.07618,-0.0273 2.38372,-0.65818 7.70513,-1.3607 11.40039,-1.50586 5.72306,-0.22483 4.98443,0.13834 -1.49024,0.73242 -1.56599,0.14368 -3.62115,0.42019 -4.5664,0.61524 -1.40832,0.29058 -1.64694,0.41414 -1.32227,0.68359 0.21792,0.18058 0.56773,0.26399 0.77734,0.18359 0.20961,-0.0804 0.62202,0.0367 0.91602,0.25977 0.5196,0.39462 0.51442,0.40548 -0.14453,0.39648 -0.37286,-0.005 -1.2875,0.12825 -2.03321,0.29688 -0.74571,0.16862 -1.47781,0.33238 -1.62695,0.36328 -0.14914,0.0309 -0.39382,0.12674 -0.54297,0.21484 -0.14914,0.0881 -0.73993,0.24583 -1.31445,0.34961 -0.57453,0.10377 -0.99529,0.23908 -0.93359,0.30078 0.15962,0.15962 4.86615,-0.69662 5.43164,-0.98828 0.61542,-0.31732 2.45236,-0.31599 2.25586,0.002 -0.0835,0.13516 -0.79139,0.33685 -1.57422,0.44726 -0.78283,0.11041 -1.28834,0.24854 -1.12305,0.30664 0.16529,0.0581 0.96098,0.002 1.76953,-0.125 0.80854,-0.1268 1.79704,-0.14363 2.19531,-0.0371 0.44356,0.11863 0.76052,0.0798 0.82032,-0.0996 0.11209,-0.33628 1.01562,-0.0652 1.01562,0.30469 0,0.31162 -1.98644,0.63798 -2.55469,0.41992 -0.23556,-0.0904 -0.42968,-0.0389 -0.42968,0.11524 0,0.15417 -0.21361,0.32852 -0.47461,0.38671 -0.261,0.0577 0.77793,0.0594 2.30664,0.002 1.92096,-0.0721 2.77929,-0.0111 2.77929,0.19726 0,0.16578 -0.20174,0.26451 -0.44726,0.22071 -0.24553,-0.0438 -0.49925,0.0733 -0.56445,0.25976 -0.09,0.25727 0.57362,0.33789 2.75195,0.33789 1.57842,0 2.86914,0.10892 2.86914,0.24024 0,0.13133 -1.31273,0.33964 -2.91602,0.46484 -2.72822,0.21304 -2.81966,0.2399 -1.42382,0.39649 0.82031,0.092 1.15623,0.18663 0.74609,0.21093 -0.68778,0.0408 -1.11123,0.58594 -0.45508,0.58594 0.15979,0 0.46025,0.17119 0.66797,0.37891 0.32278,0.32278 0.29048,0.40665 -0.22266,0.58007 -0.57244,0.19349 -0.56448,0.2084 0.14649,0.31836 0.80494,0.1245 0.98071,0.47251 0.35937,0.71094 -0.53876,0.20675 -0.23956,1.14187 0.47657,1.48828 0.56217,0.2719 0.55645,0.28514 -0.15821,0.30274 -0.80623,0.0199 -1.05373,0.54672 -0.27148,0.57812 0.40162,0.0161 0.39064,0.053 -0.0684,0.23242 -0.52098,0.20363 -0.51618,0.22007 0.0879,0.41211 0.59681,0.18974 0.6029,0.2174 0.13477,0.57227 -0.27128,0.20565 -0.38598,0.37781 -0.25586,0.38281 0.13012,0.005 0.0841,0.1923 -0.10157,0.41602 -0.27798,0.33495 -0.25422,0.40625 0.13282,0.40625 0.38819,0 0.35883,0.0927 -0.16993,0.5332 l -0.64062,0.5332 1.89844,0.0273 c 2.06775,0.0285 1.82473,0.32254 -0.57422,0.69531 -1.13664,0.17662 -1.22853,0.23406 -0.64649,0.40234 0.43452,0.12562 0.50729,0.20536 0.20313,0.22266 -0.53486,0.0305 -0.6609,0.56822 -0.13477,0.57422 0.24947,0.003 0.24143,0.0648 -0.0293,0.23633 -0.25648,0.16251 -0.27757,0.28867 -0.0684,0.41797 0.45766,0.28285 0.35846,0.69475 -0.17383,0.71875 -0.30178,0.0136 -0.34776,0.0727 -0.125,0.16211 0.26899,0.10792 0.27757,0.22743 0.0352,0.51953 -0.24929,0.30038 -0.22214,0.38086 0.13282,0.38086 0.35917,0 0.39444,0.10366 0.17187,0.51953 -0.20261,0.37849 -0.18632,0.5593 0.0586,0.6582 0.19778,0.0799 0.13939,0.14365 -0.14063,0.15625 -0.4104,0.0184 -0.42847,0.0991 -0.13476,0.58008 0.29127,0.477 0.26373,0.61615 -0.18555,0.94922 -0.2895,0.21463 -0.37395,0.39062 -0.1875,0.39062 0.18648,0 0.27115,0.10807 0.18945,0.24024 -0.14574,0.23581 0.80041,0.38598 4.5918,0.72656 1.70839,0.15346 6.7012,1.22934 7.72851,1.66601 0.22372,0.0951 1.01601,0.37374 1.76172,0.61914 l 1.35547,0.44727 0.51953,-1.10351 c 0.28492,-0.60695 0.49656,-1.19479 0.47266,-1.30665 -0.0239,-0.11188 0.0794,-0.20507 0.22851,-0.20507 0.14914,0 0.27149,-0.18254 0.27149,-0.40625 0,-0.22371 0.12916,-0.40625 0.28711,-0.40625 0.15798,0 0.21134,-0.12235 0.11914,-0.27149 -0.0922,-0.14914 -0.0255,-0.27148 0.14844,-0.27148 0.1739,0 0.24605,-0.18254 0.16015,-0.40625 -0.0941,-0.24529 -6.4e-4,-0.40625 0.23438,-0.40625 0.23465,0 0.32652,-0.16096 0.23242,-0.40625 -0.0951,-0.24791 0.001,-0.40821 0.24414,-0.40821 0.71737,0 0.36035,-1.04555 -0.59766,-1.75195 -0.92152,-0.67948 -0.95385,-0.9101 -0.0645,-0.45508 0.2512,0.12851 0.80257,0.31693 1.22461,0.41797 0.6824,0.16336 0.74739,0.12304 0.5918,-0.36719 -0.14247,-0.44887 -0.0845,-0.51755 0.3164,-0.37109 0.44656,0.16317 0.44319,0.12112 -0.0488,-0.44531 l -0.54297,-0.625 0.60937,0.18945 c 0.48203,0.15002 0.57436,0.10194 0.44531,-0.23437 -0.10912,-0.28436 -0.009,-0.42383 0.30469,-0.42383 0.38611,0 0.41074,-0.0733 0.13281,-0.40821 -0.26497,-0.31945 -0.26577,-0.40624 -0.004,-0.40624 0.19512,0 0.26226,-0.18173 0.16406,-0.4375 -0.1377,-0.35884 -0.0329,-0.40461 0.58203,-0.26172 0.46459,0.10799 0.61459,0.0828 0.39453,-0.0645 -0.38697,-0.25894 -0.17729,-1.67578 0.24805,-1.67578 0.13297,0 0.24219,-0.16955 0.24219,-0.375 0,-0.20545 0.18026,-0.52272 0.40234,-0.70703 0.22207,-0.18431 0.33756,-0.44393 0.25586,-0.57617 -0.0817,-0.13225 -0.0193,-0.24024 0.13867,-0.24024 0.61499,0 0.23561,-0.51789 -0.86523,-1.18164 -1.39398,-0.84049 -0.99962,-0.92184 0.77734,-0.16015 1.26231,0.54113 1.28446,0.54062 0.81641,0.0234 -0.46241,-0.51098 -0.45845,-0.53744 0.082,-0.70898 0.56649,-0.1798 0.78662,-0.68555 0.29883,-0.68555 -0.14447,0 -0.19332,-0.18254 -0.10742,-0.40625 0.0858,-0.22371 0.40253,-0.40625 0.70312,-0.40625 0.45506,0 0.49006,-0.0676 0.20898,-0.40625 -0.25859,-0.31155 -0.26023,-0.4082 -0.01,-0.4082 0.17983,0 0.27594,-0.14882 0.21484,-0.33203 -0.0611,-0.18321 0.11265,-0.57316 0.38477,-0.86523 0.48382,-0.51933 0.46617,-0.54763 -0.79297,-1.28907 -1.40032,-0.82457 -1.3539,-0.93075 0.20117,-0.46484 0.86302,0.25857 1.09127,0.23048 1.58399,-0.19141 0.4233,-0.36243 0.48704,-0.54953 0.24218,-0.70508 -0.23433,-0.14883 -0.19492,-0.21184 0.13282,-0.21484 0.30195,-0.003 0.41172,-0.1465 0.31054,-0.41016 -0.0858,-0.22372 -0.0206,-0.4082 0.14453,-0.4082 0.68427,0 0.20183,-0.50051 -1.38867,-1.4414 -1.98932,-1.17684 -1.8459,-1.25571 0.54102,-0.30079 0.95821,0.38335 1.81138,0.62612 1.89648,0.54102 0.0851,-0.0851 0.0119,-0.1543 -0.16211,-0.1543 -0.17401,0 -0.3164,-0.12234 -0.3164,-0.27148 0,-0.14915 0.19942,-0.27149 0.4414,-0.27149 0.36032,0 0.37804,-0.0731 0.10157,-0.40625 -0.26497,-0.31956 -0.26578,-0.40625 -0.004,-0.40625 0.18529,0 0.26433,-0.18062 0.17773,-0.40625 -0.0941,-0.24528 -0.003,-0.4082 0.23243,-0.4082 0.23465,0 0.32847,-0.16097 0.23437,-0.40625 -0.0858,-0.22372 -0.0309,-0.40625 0.12109,-0.40625 0.15193,0 0.24142,-0.31503 0.19922,-0.69922 -0.0682,-0.62105 -0.003,-0.68006 0.59766,-0.52929 0.62296,0.15634 0.64156,0.13569 0.23633,-0.26954 -0.24173,-0.24173 -0.44136,-0.52183 -0.44336,-0.62304 -0.002,-0.1012 -0.60921,-0.48228 -1.34961,-0.84571 -0.7404,-0.36342 -1.30792,-0.69794 -1.26172,-0.74414 0.0462,-0.0462 0.72569,0.10643 1.51172,0.33985 1.43463,0.42604 2.36961,0.3572 2.05469,-0.15235 -0.0928,-0.15019 0.0214,-0.27343 0.2539,-0.27343 0.50516,0 0.56356,-0.4393 0.084,-0.63282 -0.18683,-0.0754 -0.10679,-0.1464 0.17968,-0.1582 0.28581,-0.0118 0.4399,-0.10307 0.3418,-0.20117 -0.0981,-0.0981 -0.059,-0.32303 0.0879,-0.5 0.19235,-0.23176 -0.11504,-0.53037 -1.10351,-1.06836 -1.51222,-0.82305 -1.64685,-1.21283 -0.21289,-0.61719 0.50083,0.20803 1.27522,0.46735 1.72265,0.57617 0.77331,0.18808 0.78703,0.1767 0.27149,-0.21875 -0.35085,-0.26913 -0.41188,-0.41782 -0.17383,-0.42382 0.22581,-0.005 0.30405,-0.17918 0.20117,-0.44727 -0.13788,-0.35931 -0.039,-0.40341 0.56445,-0.25195 l 0.73438,0.18359 -0.66211,-0.55078 c -0.58403,-0.48605 -0.60357,-0.55255 -0.15625,-0.56055 0.40784,-0.007 0.44443,-0.0849 0.1875,-0.39453 -0.26246,-0.31624 -0.21945,-0.35993 0.23828,-0.24023 0.6826,0.1785 0.72414,-0.13353 0.084,-0.63672 -0.42312,-0.33259 -0.38745,-0.35417 0.33789,-0.18946 0.76302,0.17326 0.78972,0.15452 0.40821,-0.31054 -0.31495,-0.3839 -0.32921,-0.52153 -0.0625,-0.61133 0.45782,-0.15407 -0.46404,-0.85043 -2.36328,-1.7832 -1.8561,-0.91157 -1.39728,-0.93378 0.95898,-0.0469 0.99059,0.37286 1.84945,0.67774 1.90625,0.67774 0.0568,0 0.10156,-0.30488 0.10156,-0.67774 0,-0.42182 0.15512,-0.67773 0.40821,-0.67773 0.53966,0 0.51365,-0.26536 -0.0684,-0.70703 -0.40687,-0.30877 -0.33913,-0.32367 0.47461,-0.0996 l 0.94922,0.26172 -0.81446,-0.67969 -0.8125,-0.67969 0.81055,0.18359 c 0.76643,0.17454 0.78603,0.15907 0.3457,-0.28125 -0.3802,-0.3802 -0.40601,-0.56135 -0.14062,-0.98632 0.17884,-0.28637 0.5103,-0.56269 0.73828,-0.61329 0.5482,-0.12173 -3.43716,-2.13679 -6.875,-3.47656 -8.2555,-3.21726 -18.55982,-5.01816 -28.08985,-4.97656 z m -19.82617,0.15625 c -0.0942,-0.004 -0.20095,0.0136 -0.29883,0.0527 -0.21632,0.0865 -0.15182,0.15107 0.16407,0.16407 0.28581,0.0118 0.44557,-0.0525 0.35547,-0.14258 -0.0451,-0.0451 -0.1265,-0.0704 -0.22071,-0.0742 z m 40.13282,0 c -0.0942,-0.004 -0.20096,0.0136 -0.29883,0.0527 -0.21632,0.0865 -0.15184,0.15107 0.16406,0.16407 0.28581,0.0118 0.44557,-0.0525 0.35547,-0.14258 -0.0451,-0.0451 -0.1265,-0.0704 -0.2207,-0.0742 z m -43.11524,0.81445 c -0.0942,-0.004 -0.20095,0.0116 -0.29883,0.0508 -0.21632,0.0865 -0.15182,0.15107 0.16407,0.16407 0.28591,0.0118 0.44556,-0.0525 0.35546,-0.14258 -0.0451,-0.0451 -0.1265,-0.0684 -0.2207,-0.0723 z m 46.09961,0 c -0.0942,-0.004 -0.20291,0.0116 -0.30078,0.0508 -0.21632,0.0865 -0.15184,0.15107 0.16406,0.16407 0.28581,0.0118 0.44557,-0.0525 0.35547,-0.14258 -0.045,-0.0451 -0.12455,-0.0684 -0.21875,-0.0723 z m 5.85547,1.99219 c -0.0455,0.019 -0.0494,0.0696 -0.002,0.14648 0.0911,0.14743 0.28153,0.26758 0.42187,0.26758 0.39006,0 0.30377,-0.19473 -0.16601,-0.375 -0.12068,-0.0463 -0.20842,-0.0581 -0.25391,-0.0391 z m -63.36133,2.12109 c -0.02,-0.0131 -0.18234,0.0607 -0.50195,0.21289 -0.37285,0.17757 -0.72882,0.36748 -0.79102,0.42188 -0.37213,0.32558 0.50944,0.0238 0.94141,-0.32227 0.24816,-0.19879 0.37159,-0.29944 0.35156,-0.3125 z m 68.72461,0.0215 c -0.0491,0.0217 -0.0801,0.0753 -0.0801,0.1543 0,0.15795 0.12234,0.2871 0.27149,0.2871 0.14914,0 0.27148,-0.0533 0.27148,-0.11914 0,-0.0658 -0.12234,-0.19686 -0.27148,-0.28906 -0.0746,-0.0461 -0.14226,-0.0549 -0.19141,-0.0332 z m 2.13086,1.0625 c -0.02,0.013 0.10145,0.11368 0.34961,0.3125 0.28951,0.23194 0.64551,0.42187 0.79101,0.42187 0.34453,0 0.19138,-0.12617 -0.63867,-0.52148 -0.31961,-0.15224 -0.48193,-0.22595 -0.50195,-0.21289 z m -45.12305,0.55469 c 0.18643,-0.0752 0.49131,-0.0752 0.67774,0 0.18643,0.0752 0.035,0.13671 -0.33789,0.13671 -0.37286,0 -0.52628,-0.0615 -0.33985,-0.13671 z m 47.27539,0.52148 c -0.0109,0.0164 0.11446,0.11783 0.36719,0.32031 0.55325,0.44324 0.69336,0.50439 0.69336,0.29688 0,-0.0693 -0.2738,-0.25926 -0.60937,-0.42188 -0.29297,-0.14196 -0.44029,-0.21169 -0.45118,-0.19531 z m -54.05468,0.5625 c 0.18643,-0.0752 0.4913,-0.0752 0.67773,0 0.18643,0.0753 0.035,0.13672 -0.33789,0.13672 -0.37286,0 -0.52627,-0.0615 -0.33984,-0.13672 z m -1.35547,0.27148 c 0.18643,-0.0752 0.4913,-0.0752 0.67773,0 0.18643,0.0752 0.035,0.13672 -0.33789,0.13672 -0.37286,0 -0.52627,-0.0615 -0.33984,-0.13672 z m 57.74414,0.45508 c -0.19404,0.002 -0.16237,0.10964 0.082,0.26758 0.52095,0.33666 0.61626,0.33666 0.4082,0 -0.0922,-0.14914 -0.31261,-0.26958 -0.49023,-0.26758 z m -59.96485,0.17188 c 0.20051,-0.0123 0.25737,0.0523 0.0977,0.19922 -0.0621,0.0572 -0.5405,0.17883 -1.0625,0.26953 l -0.94926,0.164 0.94922,-0.36914 c 0.41977,-0.1629 0.76434,-0.25133 0.96484,-0.26367 z m -4.24218,1.21289 c 0.0942,0.004 0.17565,0.0292 0.2207,0.0742 0.0901,0.0901 -0.0696,0.15437 -0.35547,0.14258 -0.31589,-0.013 -0.38038,-0.0775 -0.16406,-0.16407 0.0979,-0.0392 0.20462,-0.0566 0.29883,-0.0527 z m -2.95899,1.08984 c 0.25638,0 0.20513,0.0855 -0.13672,0.23242 -0.29828,0.12817 -0.7255,0.23438 -0.94922,0.23438 -0.25638,0 -0.20513,-0.0875 0.13672,-0.23438 0.29828,-0.12818 0.7255,-0.23242 0.94922,-0.23242 z m -21.15234,1.31836 c -0.014,-0.014 -0.12285,0.0677 -0.33789,0.23633 -0.261,0.20469 -0.47461,0.41831 -0.47461,0.47461 0,0.22318 0.22192,0.0787 0.57617,-0.37305 0.16865,-0.21504 0.25033,-0.32389 0.23633,-0.33789 z m 94.910153,0.27149 c -0.014,0.014 0.0677,0.12284 0.23633,0.33789 0.35424,0.45166 0.57617,0.59622 0.57617,0.37304 0,-0.0563 -0.21361,-0.26992 -0.4746,-0.47461 -0.21505,-0.16865 -0.3239,-0.25032 -0.3379,-0.23632 z m -55.115233,0.36132 c 0.18643,-0.0752 0.4913,-0.0752 0.67773,0 0.18643,0.0753 0.033,0.13672 -0.33984,0.13672 -0.37286,0 -0.52432,-0.0615 -0.33789,-0.13672 z m -23.93164,0.1875 c 0.14915,0 0.0889,0.11911 -0.13477,0.26368 -0.22371,0.14458 -0.52859,0.26367 -0.67773,0.26367 -0.14914,0 -0.0889,-0.11909 0.13477,-0.26367 0.22372,-0.14457 0.52859,-0.26368 0.67773,-0.26368 z m 23.32031,0.0176 -2.30469,0.3711 c -2.69274,0.43316 -3.33871,0.47137 -2.56054,0.15625 0.3069,-0.12428 1.52837,-0.29376 2.71289,-0.37696 z m 56.810553,0.2461 c -0.014,0.014 0.0677,0.12479 0.23633,0.33984 0.20469,0.261 0.41831,0.47461 0.47461,0.47461 0.22318,0 0.0787,-0.22388 -0.37305,-0.57813 -0.21505,-0.16865 -0.32389,-0.25032 -0.33789,-0.23632 z m -62.798833,0.55273 c 0.73151,-0.028 -0.30332,0.36993 -1.79297,0.68945 -1.94923,0.4181 -2.27253,0.45221 -2.03906,0.21875 0.15181,-0.15182 3.24943,-0.8859 3.83203,-0.9082 z m 64.697273,0.80273 c -0.014,0.014 0.0677,0.1248 0.23632,0.33985 0.35424,0.45167 0.57618,0.59427 0.57618,0.37109 0,-0.0563 -0.21361,-0.26992 -0.47461,-0.47461 -0.21505,-0.16865 -0.3239,-0.25032 -0.33789,-0.23633 z m -86.367193,0.55079 c 0.14915,0 0.087,0.11909 -0.13672,0.26367 -0.22371,0.14457 -0.52859,0.26172 -0.67773,0.26172 -0.14914,0 -0.087,-0.11715 0.13671,-0.26172 0.22372,-0.14458 0.5286,-0.26367 0.67774,-0.26367 z m 83.244143,0.45898 c -0.0867,0.0128 -0.13086,0.0627 -0.13086,0.1543 0,0.19942 -0.24469,0.62514 -0.54297,0.94531 -0.29829,0.32017 -0.54297,0.70985 -0.54297,0.86523 0,0.15538 -0.13568,0.28125 -0.30078,0.28125 -0.1651,0 -0.22838,0.18253 -0.14258,0.40625 0.086,0.22412 0.006,0.40921 -0.17578,0.41016 -0.18175,9.5e-4 -0.5316,0.35757 -0.7793,0.79297 -0.426543,0.74984 -0.424013,0.81613 0.0684,1.26172 0.65055,0.58875 0.48466,0.80017 -0.29882,0.38086 -0.493773,-0.26425 -0.674233,-0.22751 -1.091803,0.2207 -0.2751,0.29526 -0.42634,0.61067 -0.33594,0.70117 0.0905,0.0905 -0.0519,0.16602 -0.3164,0.16602 -0.31587,0 -0.42681,0.13891 -0.32422,0.40625 0.0968,0.25216 -0.001,0.40625 -0.25782,0.40625 -0.22782,0 -0.34812,0.10867 -0.26562,0.24218 0.0825,0.13352 -0.0392,0.31715 -0.27148,0.40626 -0.23231,0.0891 -0.34671,0.28339 -0.25391,0.43359 0.0928,0.15019 0.0388,0.27344 -0.11914,0.27344 -0.15795,0 -0.28711,0.1913 -0.28711,0.42382 0,0.23256 -0.12234,0.34611 -0.27149,0.25391 -0.57511,-0.35544 -0.23482,0.39459 0.40821,0.90039 0.91542,0.72007 0.85808,0.94138 -0.10156,0.39063 -0.87402,-0.50162 -1.00499,-0.42989 -2.14454,1.1914 -0.75311,1.07148 -0.75388,1.06223 0.14454,1.90625 l 0.74609,0.69922 -0.86914,-0.44141 c -1.16515,-0.59386 -1.40427,-0.56194 -1.70703,0.23438 -0.14176,0.37286 -0.38427,0.67969 -0.53711,0.67969 -0.15283,0 -0.27735,0.18254 -0.27735,0.40625 0,0.22372 -0.12916,0.40625 -0.28711,0.40625 -0.15798,0 -0.21134,0.12234 -0.11914,0.27148 0.0922,0.14914 -0.0324,0.27149 -0.27734,0.27149 -0.24492,0 -0.39368,0.15146 -0.33008,0.33789 0.0637,0.18643 -0.14089,0.56599 -0.45312,0.84179 l -0.56641,0.5 1.08399,0.94727 1.08398,0.94922 -1.26367,-0.61133 c -1.15469,-0.55725 -1.30265,-0.57236 -1.69531,-0.17969 -0.23655,0.23654 -0.42969,0.56091 -0.42969,0.72071 0,0.15979 -0.12235,0.28906 -0.27149,0.28906 -0.14912,0 -0.25221,0.0932 -0.22851,0.20508 0.0237,0.11186 -0.0503,0.41861 -0.16602,0.68359 -0.1512,0.34616 -0.008,0.67045 0.51172,1.15234 0.7834,0.72603 0.61994,0.90351 -0.23633,0.25586 -0.28951,-0.21897 -0.67045,-0.39843 -0.8457,-0.39843 -0.2887,0 -1.5134,1.4314 -2.56055,2.99218 -0.22371,0.33344 -0.5499,0.7418 -0.72461,0.90821 -0.23983,0.22846 -0.0739,0.55908 0.67774,1.34765 l 0.99609,1.04492 -1.05469,-0.70507 c -0.5801,-0.388 -1.1297,-0.70513 -1.2207,-0.70313 -0.17795,0.004 -1.39446,1.79843 -1.38086,2.03711 0.005,0.079 -0.29937,0.42849 -0.67578,0.77734 -0.37641,0.34884 -0.68359,0.72077 -0.68359,0.82618 0,0.10541 -0.15343,0.3524 -0.33985,0.54882 -0.77303,0.81445 -1.28711,1.52363 -1.28711,1.77539 0,0.14744 -0.12916,0.26954 -0.28711,0.26954 -0.15794,0 -0.22117,0.10867 -0.13867,0.24218 0.0825,0.13352 -0.0479,0.31881 -0.29101,0.41211 -0.39278,0.15072 -0.39658,0.22211 -0.0391,0.63867 0.80638,0.9396 0.83952,1.21514 0.0879,0.72266 -0.4829,-0.31641 -0.79751,-0.38342 -0.91601,-0.19531 -0.30568,0.48523 -1.51734,2.0428 -1.86133,2.39258 -0.17939,0.18234 -0.2505,0.4077 -0.1582,0.5 0.0923,0.0924 0.0256,0.16797 -0.14844,0.16797 -0.174,0 -0.31641,0.12581 -0.31641,0.28125 0,0.29901 -0.27497,0.67097 -1.32617,1.79101 l -0.64648,0.68945 2.19531,2.01954 c 5.14676,4.73587 8.12801,10.01861 9.85156,17.45507 0.4053,1.74696 0.39991,9.29009 -0.008,11.36133 -0.28346,1.44004 -1.43718,5.18001 -2.30859,7.48438 -0.19369,0.51225 -0.18819,0.51406 0.11718,0.0352 0.26433,-0.41457 0.37132,-0.44043 0.58399,-0.13672 0.19163,0.2737 0.29498,0.28731 0.39258,0.0488 0.22142,-0.54112 0.94578,-0.0774 0.76562,0.49024 -0.0895,0.28199 -0.033,0.51172 0.12695,0.51172 0.1592,0 0.28907,-0.12235 0.28907,-0.27149 0,-0.14914 0.12986,-0.27148 0.28906,-0.27148 0.16601,0 0.21784,0.23185 0.11914,0.54297 -0.23469,0.73943 0.24874,0.68738 0.63672,-0.0684 0.27969,-0.54483 0.29622,-0.50767 0.16406,0.33984 -0.11949,0.76635 -0.0896,0.85653 0.15235,0.46875 0.1648,-0.26412 0.41918,-0.40741 0.5664,-0.31641 0.17013,0.10517 0.15304,0.30559 -0.0488,0.54883 -0.21227,0.25581 -0.22184,0.38281 -0.0273,0.38281 0.15999,0 0.42778,-0.2136 0.59375,-0.47461 0.25151,-0.39552 0.27415,-0.35004 0.14258,0.27149 -0.18105,0.85519 0.0333,0.95713 0.57226,0.27148 0.33281,-0.42339 0.35426,-0.38792 0.19336,0.33789 l -0.17968,0.81446 0.62109,-0.54297 0.62305,-0.54297 -0.32032,0.61133 c -0.1761,0.33557 -0.21412,0.60937 -0.084,0.60937 0.26458,0 2.48891,-4.60995 2.50391,-5.18945 0.005,-0.20358 0.19331,-0.67401 0.41796,-1.04687 0.3149,-0.52273 0.38012,-0.5549 0.2793,-0.13672 -0.52747,2.18778 -0.85517,3.21421 -1.54492,4.84179 -0.96333,2.27309 -0.99464,2.73529 -0.11328,1.66797 l 0.67187,-0.81445 -0.29883,0.89453 c -0.39384,1.18415 -0.11788,1.41043 0.42969,0.35156 0.59626,-1.15306 0.79057,-1.05772 0.28906,0.14258 -0.54137,1.29567 -0.50999,1.46727 0.11915,0.64844 0.28477,-0.37062 0.60859,-0.58087 0.7207,-0.46875 0.11212,0.11211 0.0593,0.34696 -0.11719,0.52344 -0.37433,0.37439 -0.41901,0.75585 -0.0898,0.75585 0.12635,0 0.373,-0.27575 0.54883,-0.61132 0.27469,-0.52431 0.30323,-0.53246 0.20703,-0.0664 -0.0615,0.29829 -0.2005,0.75684 -0.3086,1.01953 -0.15078,0.36645 -0.093,0.43919 0.24219,0.31055 0.24032,-0.0922 0.43555,-0.31489 0.43555,-0.49414 0,-0.17925 0.18158,-0.56205 0.40234,-0.85156 0.33589,-0.44048 0.33014,-0.31457 -0.0332,0.78125 -0.30712,0.92626 -0.3488,1.39533 -0.14453,1.5996 0.20426,0.20428 0.25176,0.1387 0.16406,-0.2246 -0.0682,-0.28248 -0.0143,-0.68074 0.11914,-0.88477 0.1965,-0.30036 0.35127,-0.26202 0.81836,0.20508 0.54611,0.5461 0.55489,0.63101 0.16406,1.5664 -0.58281,1.39487 -0.31405,1.42503 0.50195,0.0566 l 0.68946,-1.15626 -0.10352,1.39258 c -0.0838,1.12582 -0.0286,1.3665 0.28516,1.2461 0.32615,-0.12515 0.33428,-0.0472 0.0508,0.49218 -0.18573,0.35335 -0.6117,1.0258 -0.94727,1.49414 -0.33557,0.46836 -0.61132,0.93055 -0.61132,1.02735 0,0.45395 -3.14462,4.33155 -5.3125,6.54883 -2.43811,2.49366 -6.67072,6.07226 -7.18164,6.07226 -0.34229,0 0.71715,-0.96129 2.19726,-1.99414 0.61071,-0.42617 1.04249,-0.84423 0.95899,-0.92773 -0.0835,-0.0835 -0.63403,0.23594 -1.22266,0.70898 -1.19182,0.95777 -2.14208,1.3846 -2.66992,1.19922 -0.26907,-0.0945 -0.27571,-0.21172 -0.0332,-0.50391 0.24799,-0.29878 0.22367,-0.38086 -0.10937,-0.38086 -0.23317,0 -0.4996,0.12235 -0.5918,0.27149 -0.25264,0.40878 -0.68109,0.32648 -0.51758,-0.0996 0.0785,-0.20447 -0.0456,-0.445 -0.27539,-0.5332 -0.23063,-0.0885 -0.34972,-0.33738 -0.26562,-0.55664 0.11626,-0.30301 0.003,-0.35857 -0.47852,-0.23438 -0.58293,0.15029 -0.60004,0.12486 -0.22656,-0.33008 0.37329,-0.45472 0.35621,-0.47831 -0.20312,-0.30078 -0.48081,0.15261 -0.57254,0.10423 -0.44336,-0.23242 0.10765,-0.28052 0.0114,-0.42383 -0.28711,-0.42383 -0.24848,0 -0.37736,-0.12234 -0.28516,-0.27148 0.0922,-0.14914 -0.0347,-0.27149 -0.2832,-0.27149 -0.29887,0 -0.39672,-0.1433 -0.28907,-0.42382 0.12662,-0.33002 0.036,-0.38522 -0.40234,-0.2461 -0.50307,0.15967 -0.53095,0.11805 -0.25976,-0.38867 0.37623,-0.70304 0.26272,-0.70546 -1.07032,-0.0254 -1.51066,0.77068 -1.89542,0.67066 -0.64843,-0.16797 0.5801,-0.39013 1.09929,-0.75058 1.15429,-0.80078 0.16396,-0.14953 -0.71291,-0.92969 -1.04492,-0.92969 -0.16865,0 -0.23087,-0.12233 -0.13867,-0.27148 0.0922,-0.14914 -0.0324,-0.27149 -0.27735,-0.27149 -0.24498,0 -0.39568,-0.15084 -0.33398,-0.33593 0.12796,-0.38386 -0.41868,-1.01954 -0.87695,-1.01954 -0.16856,0 -0.23157,-0.12315 -0.13867,-0.27343 0.19197,-0.31063 -0.48162,-1.08203 -0.94532,-1.08203 -0.16863,0 -0.23619,-0.11312 -0.15039,-0.25196 0.0858,-0.13884 0.029,-0.33058 -0.125,-0.42578 -0.15402,-0.0952 -0.2097,-0.2867 -0.125,-0.42383 0.0852,-0.1379 -0.0552,-0.16901 -0.3125,-0.0703 -0.31565,0.12115 -0.40256,0.0766 -0.26953,-0.13867 0.33276,-0.53841 -0.27444,-0.36127 -3.04687,0.88476 -2.39202,1.07506 -3.52376,1.46332 -6.82227,2.3418 -0.522,0.13902 -2.48247,0.33124 -4.35742,0.42773 -4.63158,0.23837 -7.9054,-0.20483 -12.25586,-1.66015 -2.02424,-0.67715 -3.33237,-1.00093 -3.14844,-0.7793 0.25046,0.30178 0.22921,0.34478 -0.10937,0.21485 -0.33063,-0.12687 -0.3911,-0.0294 -0.26953,0.43554 0.10514,0.40208 0.003,0.68395 -0.31055,0.85938 -0.4377,0.24495 -0.43589,0.28578 0.0273,0.6582 0.46232,0.37169 0.45281,0.38493 -0.14062,0.2207 -0.58215,-0.1611 -0.60646,-0.12764 -0.31446,0.41797 0.29202,0.54564 0.26577,0.57935 -0.3164,0.41797 l -0.63281,-0.17578 0.64062,0.55664 0.63867,0.55664 -0.63867,0.004 c -0.51282,0.003 -0.5602,0.057 -0.23437,0.26758 0.3476,0.22462 0.33719,0.26357 -0.0684,0.26757 -0.261,0.002 -0.47461,0.12624 -0.47461,0.27539 0,0.14914 0.12233,0.27149 0.27148,0.27149 0.14914,0 0.27149,0.10897 0.27149,0.24414 0,0.1352 -0.27381,0.17775 -0.60938,0.0937 -0.59285,-0.14844 -0.59745,-0.13712 -0.12695,0.39648 0.47382,0.53736 0.46768,0.54596 -0.27149,0.42383 -0.42625,-0.0704 0.18993,0.35623 1.41407,0.97852 1.19314,0.60653 2.35246,1.11536 2.57617,1.13086 0.26982,0.0188 0.29644,0.0729 0.0762,0.16211 -0.18261,0.0739 -1.38149,-0.25026 -2.66406,-0.72266 -2.19036,-0.80676 -3.31441,-0.95899 -2.03711,-0.27539 0.65841,0.35236 0.50332,0.87111 -0.19532,0.65234 -0.38598,-0.12086 -0.37556,-0.0721 0.0605,0.28321 0.46154,0.37609 0.4685,0.42773 0.0664,0.42773 -0.53351,0 -0.6149,0.43473 -0.11914,0.63477 0.18643,0.0752 0.0552,0.1464 -0.29102,0.1582 -0.57227,0.0195 -0.5905,0.0599 -0.20312,0.44727 0.57416,0.57366 0.53787,0.68803 -0.1836,0.56835 -0.33557,-0.0557 -0.45791,-0.0501 -0.27148,0.0137 0.62125,0.21248 0.37848,0.84819 -0.27149,0.71093 -0.53752,-0.11353 -0.55283,-0.0934 -0.13476,0.17383 0.51797,0.33106 0.64856,1.08985 0.1875,1.08985 -0.15798,0 -0.2133,0.12234 -0.1211,0.27148 0.0922,0.14915 -0.0214,0.27148 -0.2539,0.27148 -0.23252,0 -0.42383,0.12235 -0.42383,0.27149 0,0.14914 0.11921,0.26953 0.26367,0.26953 0.14447,0 0.19127,0.18449 0.10547,0.4082 -0.0858,0.22371 -0.40987,0.40625 -0.7207,0.40625 -0.55629,0 -0.55716,0.007 -0.0391,0.42578 0.50077,0.40454 0.48682,0.41722 -0.28711,0.25977 l -0.8125,-0.16602 0.88671,0.55274 c 0.48832,0.30458 0.95923,0.55469 1.04493,0.55469 0.0857,0 0.5398,0.18055 1.00976,0.40234 0.46997,0.2218 1.8303,0.77424 3.02344,1.22656 1.19316,0.45231 1.7427,0.74374 1.2207,0.64844 -1.06081,-0.19368 -5.56904,-1.65561 -6.30468,-2.04492 -0.29805,-0.15774 -0.47461,-0.15311 -0.47461,0.0117 0,0.14434 0.23862,0.33738 0.52929,0.42968 0.33067,0.10495 0.4692,0.32063 0.3711,0.57618 -0.0862,0.22463 -0.31984,0.34613 -0.51953,0.26953 -0.19969,-0.0766 -0.42736,-0.0352 -0.50586,0.0918 -0.0785,0.127 0.0389,0.29927 0.26171,0.38477 0.22285,0.0855 0.40625,0.41159 0.40625,0.72461 0,0.45887 -0.11937,0.53695 -0.61132,0.40234 -0.36428,-0.0997 -0.17301,0.11689 0.47461,0.53711 l 1.08593,0.70313 -1.08593,-0.16407 -1.08399,-0.16601 0.8711,0.45312 c 0.69037,0.35878 0.8017,0.52251 0.5371,0.78711 -0.18372,0.18372 -0.51332,0.40539 -0.73437,0.49219 -0.31673,0.12436 -0.30166,0.16084 0.0723,0.17774 0.261,0.0118 0.4746,0.12995 0.4746,0.26171 0,0.13176 0.27381,0.31084 0.60938,0.39844 0.33557,0.0876 2.01338,0.64616 3.72852,1.24024 3.89152,1.34793 2.83094,1.44033 -1.63477,0.14257 -1.82099,-0.52919 -3.37718,-0.89625 -3.45898,-0.81445 -0.0818,0.0818 0.0408,0.15039 0.27343,0.15039 0.51879,0 0.8411,0.72667 0.4336,0.97852 -0.18304,0.11313 -0.0504,0.33107 0.34961,0.57031 0.38541,0.23056 0.44623,0.32307 0.14843,0.23047 -0.27486,-0.0855 -0.82442,-0.22836 -1.2207,-0.31836 -0.68981,-0.15672 -0.69695,-0.1481 -0.17773,0.23437 0.29829,0.21972 0.81851,0.4864 1.15625,0.5918 0.33773,0.1054 0.54283,0.30455 0.45703,0.44336 -0.095,0.15375 -0.3546,0.14609 -0.66407,-0.0195 -0.63272,-0.33863 -0.89346,-0.34721 -0.69335,-0.0234 0.0843,0.13648 0.97894,0.56352 1.98828,0.94922 0.51217,0.19571 1.07956,0.35082 1.61523,0.5293 h 57.04883 c 0.15823,-0.11918 0.11675,-0.10993 0.30664,-0.24805 6.050453,-4.40105 12.441273,-11.14308 16.683593,-17.60156 2.67137,-4.06687 5.95289,-10.76953 6.37891,-13.02735 l 0.1543,-0.8125 -0.30469,0.74415 c -0.3856,0.94221 -0.82192,0.98997 -0.46484,0.0508 0.39514,-1.03931 0.30837,-1.14143 -0.32618,-0.38868 l -0.57031,0.67774 0.18359,-1.08399 0.18555,-1.08593 -0.69336,1.35547 -0.69531,1.35742 0.17969,-1.08594 c 0.0988,-0.59657 0.3018,-1.16297 0.45117,-1.25977 0.33474,-0.21695 0.0501,-1.04492 -0.35938,-1.04492 -0.18044,0 -0.22598,0.22724 -0.11523,0.57617 0.13553,0.42707 0.0945,0.52188 -0.16211,0.36329 -0.24624,-0.15217 -0.29695,-0.0845 -0.17383,0.23632 0.0952,0.24818 0.0689,0.45118 -0.0586,0.45118 -0.12747,0 -0.44001,0.45828 -0.69531,1.01757 -1.02472,2.24482 -3.29115,6.59521 -4.06055,7.79493 -3.9245,6.11949 -6.67979,9.6845 -10.29688,13.32226 -2.581253,2.59601 -8.105523,7.15668 -8.650393,7.14258 -0.17504,-0.005 -0.0737,-0.14592 0.22461,-0.31641 0.29829,-0.17049 1.70229,-1.25462 3.11914,-2.4082 3.71911,-3.02803 8.330803,-7.81679 11.337893,-11.77344 0.5478,-0.72077 3.31301,-4.99292 3.77344,-5.83008 2.34376,-4.26147 3.71748,-7.43626 3.48242,-8.04882 -0.10083,-0.2617 -0.0972,-0.39022 0.008,-0.28516 0.27558,0.27558 0.92777,-1.09883 0.74609,-1.57227 -0.0841,-0.2191 -0.23223,-0.40034 -0.32813,-0.40234 -0.0959,-0.002 -0.33284,-0.10516 -0.52734,-0.22852 -0.28516,-0.1809 -0.2914,-0.48136 -0.0293,-1.55468 0.17873,-0.73193 0.41894,-1.45241 0.53321,-1.60156 0.11427,-0.14915 0.29391,-0.72978 0.39843,-1.28907 0.15217,-0.81429 0.10718,-1.01758 -0.22461,-1.01758 -0.22788,0 -0.45972,-0.13701 -0.51562,-0.30468 -0.0559,-0.16768 -0.39298,0.68676 -0.74805,1.89843 -0.35507,1.21167 -0.75901,2.20313 -0.89843,2.20313 -0.13941,0 -0.18777,-0.17429 -0.10547,-0.38867 0.17121,-0.44617 0.74006,-2.52608 0.85742,-3.13477 0.0432,-0.2243 0.26495,-0.83542 0.49219,-1.35742 0.33909,-0.779 0.41734,-0.84062 0.43554,-0.33984 0.027,0.74399 0.56446,0.82396 0.56446,0.084 0,-0.28949 0.12234,-0.60116 0.27148,-0.69336 0.14914,-0.0921 0.27148,-0.0519 0.27148,0.0899 1e-5,0.22813 1.01677,0.63547 1.76172,0.70507 0.30437,0.0284 1.17543,-2.36218 1.20313,-3.30273 0.01,-0.33557 0.13691,-0.61133 0.2832,-0.61133 0.1629,0 0.1934,0.49999 0.0781,1.28906 -0.28425,1.94573 -0.24442,2.85182 0.13086,2.98047 0.18643,0.0639 0.33984,-0.0783 0.33984,-0.31445 0,-0.23614 0.12987,-0.42969 0.28906,-0.42969 0.1749,0 0.21422,0.23652 0.0996,0.59766 -0.16989,0.53529 -0.1476,0.55581 0.22266,0.18554 0.2273,-0.2273 0.47347,-0.64976 0.54687,-0.9375 0.0907,-0.35583 0.14573,-0.2623 0.16992,0.29102 0.0274,0.62473 0.0955,0.71861 0.29297,0.40625 0.14142,-0.22371 0.408,-0.40625 0.59375,-0.40625 0.34264,0 0.51844,-0.5418 1.16211,-3.60742 0.19745,-0.94038 0.43911,-1.79067 0.53711,-1.88867 0.17783,-0.17784 0.13982,0.1931 -0.39453,3.97265 -0.1557,1.10163 -0.21777,2.06934 -0.13867,2.14844 0.0791,0.0791 0.14258,-0.10723 0.14258,-0.41211 0,-0.70474 0.69622,-1.34767 0.90234,-0.83398 0.0772,0.19266 0.15031,0.0826 0.16211,-0.24414 0.0266,-0.73811 0.5439,-1.0949 0.86133,-0.59375 0.17675,0.2791 0.23723,0.223 0.24023,-0.22071 0.002,-0.32677 0.14356,-0.67953 0.31446,-0.78515 0.21971,-0.13581 0.25655,0.0247 0.125,0.54882 -0.26448,1.05377 0.30504,0.62214 0.62109,-0.4707 0.18836,-0.65122 0.25699,-0.71915 0.27539,-0.27344 0.022,0.53403 0.0889,0.561 0.6582,0.26563 1.19019,-0.61747 2.04504,-1.81102 2.23829,-3.12305 0.10223,-0.69421 0.27702,-1.50641 0.38867,-1.80469 0.16913,-0.45185 0.23462,-0.3764 0.39453,0.45118 0.1055,0.54631 0.11052,1.24734 0.0117,1.55859 -0.10553,0.3325 -0.0587,0.56641 0.11132,0.56641 0.1592,0 0.28907,-0.18567 0.28907,-0.41407 0,-0.22839 0.21361,-0.49053 0.47461,-0.58203 0.70673,-0.2478 1.40714,-1.21788 1.43554,-1.98633 0.021,-0.56846 0.0576,-0.5972 0.22266,-0.17773 0.17603,0.44725 0.23161,0.4237 0.52344,-0.2168 0.17952,-0.394 0.34167,-1.16843 0.35937,-1.7207 0.0315,-0.98531 0.0344,-0.98771 0.21094,-0.18945 0.16083,0.72738 0.23187,0.60543 0.66406,-1.15039 0.26589,-1.08005 0.39429,-2.10588 0.28711,-2.2793 -0.11378,-0.1841 -0.0771,-0.24262 0.0879,-0.14063 0.31914,0.19724 0.46176,-0.62469 0.90821,-5.24218 0.57495,-5.94641 -0.71084,-15.15448 -3.10547,-22.23633 -1.17276,-3.46833 -1.55519,-4.46557 -1.81641,-4.73242 -0.1387,-0.14168 -0.25195,-0.45374 -0.25195,-0.69336 0,-0.61524 -4.34786,-9.24386 -5.80664,-11.52344 -4.51391,-7.05374 -10.1684,-13.67975 -15.75196,-18.46094 -3.01785,-2.5842 -5.63351,-4.34774 -6.24023,-4.25781 z m 4.47852,0.0762 c -0.014,0.014 0.0677,0.12285 0.23632,0.33789 0.35425,0.45166 0.57618,0.59623 0.57618,0.37305 0,-0.0563 -0.21361,-0.26992 -0.47461,-0.47461 -0.21505,-0.16864 -0.3239,-0.25033 -0.33789,-0.23633 z m -89.255863,0.34961 c 0.02,0.0131 -0.10145,0.11368 -0.34961,0.3125 -0.2895,0.23194 -0.64552,0.42188 -0.79102,0.42188 -0.34453,0 -0.18942,-0.12423 0.64063,-0.51954 0.31961,-0.15223 0.47997,-0.22789 0.5,-0.21484 z m 31.1582,0.54297 c 0.33557,-0.0646 0.88513,-0.0646 1.2207,0 0.33557,0.0646 0.0598,0.11719 -0.61133,0.11719 -0.67113,0 -0.94494,-0.0526 -0.60937,-0.11719 z m 59.724613,0.46289 c -0.014,0.014 0.0677,0.12285 0.23633,0.33789 0.35424,0.45166 0.57617,0.59623 0.57617,0.37305 0,-0.0563 -0.21166,-0.26992 -0.47266,-0.47461 -0.21504,-0.16865 -0.32585,-0.25033 -0.33984,-0.23633 z m -94.970703,1.40039 c 0.0881,-0.0336 0.16332,-0.0339 0.20507,0.008 0.0835,0.0835 -0.0685,0.23411 -0.33593,0.33594 -0.38646,0.14716 -0.4162,0.11742 -0.15039,-0.15039 0.092,-0.0927 0.19312,-0.1598 0.28125,-0.19336 z m 99.580073,2.66602 c -0.014,0.014 0.0677,0.1248 0.23633,0.33984 0.20469,0.261 0.41831,0.47461 0.47461,0.47461 0.22318,0 0.0806,-0.22192 -0.37109,-0.57617 -0.21505,-0.16865 -0.32585,-0.25228 -0.33985,-0.23828 z m 1.08594,1.08593 c -0.014,0.014 0.0677,0.12285 0.23633,0.3379 0.35425,0.45165 0.57617,0.59622 0.57617,0.37304 0,-0.0563 -0.21361,-0.26992 -0.47461,-0.47461 -0.21504,-0.16864 -0.32389,-0.25032 -0.33789,-0.23633 z m -71.843753,3.79688 c 0.15798,0 0.21134,0.12039 0.11914,0.26953 -0.0922,0.14914 -0.22131,0.27149 -0.28711,0.27149 -0.0658,-1e-5 -0.11914,-0.12235 -0.11914,-0.27149 0,-0.14914 0.12917,-0.26953 0.28711,-0.26953 z m -9.64648,0.12695 c 0.0455,0.019 0.0495,0.0696 0.002,0.14649 -0.0911,0.14744 -0.28154,0.26758 -0.42188,0.26758 -0.39006,0 -0.30376,-0.19473 0.16602,-0.375 0.12068,-0.0463 0.20841,-0.0581 0.25391,-0.0391 z m 10.42773,0.68555 c 0.15794,0 0.28711,0.12234 0.28711,0.27148 0,0.14915 -0.0533,0.27149 -0.11914,0.27149 -0.0658,0 -0.19491,-0.12234 -0.28711,-0.27149 -0.0922,-0.14914 -0.0388,-0.27148 0.11914,-0.27148 z m -13.60547,0.58594 c 0.0881,-0.0336 0.16333,-0.0339 0.20508,0.008 0.0835,0.0835 -0.0665,0.23606 -0.33398,0.33789 -0.38647,0.14716 -0.41817,0.11547 -0.15235,-0.15234 0.092,-0.0927 0.19312,-0.1598 0.28125,-0.19336 z m 4.85938,0.32422 c 0.0921,0.0921 -0.30844,0.3611 -0.89063,0.59765 -0.58218,0.23654 -2.21791,0.99692 -3.63476,1.68945 -1.41686,0.69253 -2.69852,1.31231 -2.84766,1.37891 -0.14915,0.0666 -0.11164,-0.0716 0.084,-0.30859 0.37942,-0.45975 4.48311,-2.64063 4.96875,-2.64063 0.15918,0 0.70812,-0.19816 1.22071,-0.4414 0.51258,-0.24323 1.00751,-0.36749 1.09961,-0.27539 z m 12.60937,0.44921 c 0.2522,-0.002 0.53476,0.11844 0.62696,0.26758 0.2121,0.34319 -0.1467,0.34319 -0.67774,0 -0.35052,-0.22651 -0.34438,-0.26358 0.0508,-0.26758 z m 72.621103,0.26758 c -0.014,0.014 0.0677,0.12481 0.23632,0.33985 0.20469,0.261 0.41831,0.47461 0.47461,0.47461 0.22318,0 0.0806,-0.22388 -0.37109,-0.57813 -0.21505,-0.16865 -0.32585,-0.25033 -0.33984,-0.23633 z m -80.558603,0.0332 c -0.0942,-0.004 -0.20096,0.0136 -0.29883,0.0527 -0.21632,0.0865 -0.15379,0.15106 0.16211,0.16406 0.28581,0.0118 0.44753,-0.0525 0.35743,-0.14258 -0.0451,-0.0451 -0.1265,-0.0703 -0.22071,-0.0742 z m 4.33789,0 c -0.0942,-0.004 -0.20096,0.0136 -0.29883,0.0527 -0.21632,0.0865 -0.15183,0.15106 0.16407,0.16406 0.28581,0.0118 0.44557,-0.0525 0.35547,-0.14258 -0.0451,-0.0451 -0.1265,-0.0703 -0.22071,-0.0742 z m -5.42187,0.27148 c -0.0942,-0.004 -0.20291,0.0136 -0.30078,0.0527 -0.21632,0.0865 -0.15183,0.15107 0.16406,0.16407 0.28591,0.0118 0.44557,-0.0525 0.35547,-0.14258 -0.0451,-0.0451 -0.12455,-0.0703 -0.21875,-0.0742 z m 1.35547,0.8125 c -0.0942,-0.004 -0.20291,0.0136 -0.30078,0.0527 -0.21632,0.0865 -0.15184,0.15107 0.16406,0.16407 0.2859,0.0118 0.44557,-0.0525 0.35547,-0.14258 -0.0451,-0.0451 -0.12455,-0.0703 -0.21875,-0.0742 z m -9.47071,1.52148 c 0.002,-0.22006 -3.59527,1.64822 -5.05078,2.62305 -2.71913,1.82113 -3.88522,2.67098 -4.20898,3.07031 -0.46799,0.57723 -0.31729,0.48804 2.97461,-1.73437 1.38972,-0.93821 3.3734,-2.16604 4.40625,-2.72852 1.03285,-0.56247 1.8779,-1.11534 1.8789,-1.23047 z m -3.58593,0.38868 c 0.0881,-0.0336 0.16332,-0.0339 0.20507,0.008 0.0835,0.0835 -0.0666,0.23606 -0.33398,0.33789 -0.38647,0.14716 -0.41815,0.11547 -0.15234,-0.15234 0.092,-0.0927 0.19312,-0.1598 0.28125,-0.19336 z m 22.77343,1.39062 c -0.33557,0.0646 -0.0618,0.11719 0.60938,0.11719 0.67113,0 0.94494,-0.0526 0.60937,-0.11719 -0.33557,-0.0646 -0.88318,-0.0646 -1.21875,0 z m -29.49023,0.85156 c 0,0.0746 -0.24469,0.26615 -0.54297,0.42578 -0.29829,0.15967 -0.54102,0.2289 -0.54102,0.1543 0,-0.0746 0.24273,-0.26615 0.54102,-0.42578 0.29828,-0.15967 0.54297,-0.2289 0.54297,-0.1543 z m 23.83984,0.1875 c -0.0942,-0.004 -0.20096,0.0136 -0.29883,0.0527 -0.21632,0.0865 -0.15183,0.15106 0.16407,0.16406 0.28581,0.0118 0.44557,-0.0525 0.35547,-0.14258 -0.0451,-0.0451 -0.1265,-0.0703 -0.22071,-0.0742 z m -20.18164,1.99219 c -0.0455,-0.019 -0.13324,-0.007 -0.2539,0.0391 -0.23146,0.0888 -0.42188,0.21093 -0.42188,0.26953 0,0.21962 0.51653,0.0956 0.67578,-0.1621 0.0475,-0.0769 0.0455,-0.12749 0,-0.14649 z m 105.912113,6.97461 c -0.0265,0.0605 0.0196,0.27428 0.15039,0.61524 0.093,0.24237 0.22708,0.38425 0.29688,0.31445 0.0698,-0.0698 -0.004,-0.35087 -0.16211,-0.62305 -0.15983,-0.27486 -0.25861,-0.36715 -0.28516,-0.30664 z m 2.49805,5.20703 c -0.0711,0.0711 -0.0495,0.25891 0.0488,0.41797 0.26741,0.43264 0.42359,0.34892 0.24023,-0.12891 -0.0883,-0.23011 -0.21796,-0.36016 -0.28906,-0.28906 z m -76.544923,6.8125 c -4.15761,-0.003 -5.03137,0.0753 -7.05078,0.63477 -4.60972,1.2772 -9.0867,3.95552 -12.20313,7.30078 -1.97651,2.12164 -1.97194,2.11783 -3.20703,3.99219 -1.20828,1.83369 -2.54966,4.72465 -3.33203,7.18554 -0.58728,1.84724 -0.64649,2.50588 -0.64649,7.18555 0,4.69303 0.0585,5.33287 0.65039,7.17383 1.57235,4.89083 3.46815,8.07789 6.79688,11.42969 4.00048,4.02819 8.157,6.3088 13.83984,7.58984 1.77827,0.40085 10.01643,0.11626 11.66016,-0.40234 6.77196,-2.13656 11.3549,-5.34451 14.95117,-10.46875 1.92304,-2.7401 2.92681,-4.81597 4.06445,-8.40625 0.57922,-1.82812 0.64454,-2.52854 0.64454,-6.91602 0,-4.59585 -0.045,-5.01768 -0.75586,-7.23047 -2.99677,-9.3279 -9.25409,-15.51914 -18.63282,-18.43359 -1.80049,-0.55948 -2.57816,-0.63177 -6.77929,-0.63477 z m 79.798823,2.13281 c -0.0285,0.0285 -0.0482,0.1233 -0.0547,0.28125 -0.0118,0.28591 0.0525,0.44557 0.14257,0.35547 0.0901,-0.0901 0.0998,-0.32378 0.0215,-0.51953 -0.0433,-0.10816 -0.0809,-0.1457 -0.10938,-0.11719 z M 7.291017,264.69346 c -0.23428,-0.0329 -0.42992,0.0831 -0.625,0.2832 v 63.26953 c 0.007,-0.018 0.0165,-0.0261 0.0234,-0.0449 0.0963,-0.26099 0.36827,-0.47461 0.60547,-0.47461 0.23718,0 0.35587,-0.12234 0.26367,-0.27148 -0.0922,-0.14914 -0.004,-0.27149 0.19532,-0.27149 0.19959,0 0.53891,-0.24273 0.7539,-0.54101 0.215,-0.29829 0.56083,-0.54297 0.76758,-0.54297 0.21712,0 0.31161,-0.16589 0.22461,-0.39258 -0.10405,-0.27114 -0.0205,-0.34373 0.26953,-0.23242 0.37456,0.14373 0.37319,0.0704 -0.0137,-0.67773 -0.583,-1.12742 -0.54821,-1.26358 0.1582,-0.60547 0.75777,0.70598 0.86548,0.69568 1.30469,-0.125 0.19955,-0.37286 0.49752,-0.67774 0.66016,-0.67774 0.55908,0 1.00501,-1.05244 0.69336,-1.63476 -0.34759,-0.64951 -0.1167,-0.69482 0.48242,-0.0957 0.40538,0.40539 0.47479,0.39565 0.90429,-0.13476 0.25617,-0.31636 0.54594,-0.57617 0.64454,-0.57617 0.28552,0 0.95507,-0.74564 0.95507,-1.06446 0,-0.15979 0.1031,-0.29101 0.23047,-0.29101 0.12736,0 0.57062,-0.31383 0.98438,-0.69727 0.65943,-0.61115 0.71543,-0.78057 0.44726,-1.36914 -0.42746,-0.93817 -0.3872,-0.99658 0.24805,-0.36133 l 0.55469,0.55274 1.50781,-1.43555 c 0.82969,-0.78972 2.22982,-2.13657 3.11133,-2.99414 0.8815,-0.85757 1.73613,-1.55859 1.89844,-1.55859 0.16231,0 0.22136,-0.1845 0.13086,-0.40821 -0.0905,-0.22371 -0.23557,-0.61986 -0.32227,-0.88086 -0.14302,-0.43034 -0.12091,-0.42853 0.24805,0.0215 0.38947,0.47503 0.44469,0.46311 1.2832,-0.27149 1.23089,-1.07835 1.88086,-1.78235 1.88086,-2.03906 0,-0.12103 0.11664,-0.21875 0.25976,-0.21875 0.33644,0 2.45118,-2.06922 2.45118,-2.39844 0,-0.13801 -0.56217,-1.33422 -1.24805,-2.65625 -2.37035,-4.56885 -3.52011,-8.57301 -3.79102,-13.19922 -0.27188,-4.64271 0.23691,-8.05225 1.95118,-13.0664 0.71903,-2.10315 0.77478,-2.41579 0.37695,-2.16992 -0.14914,0.0922 -0.27149,0.0388 -0.27149,-0.11914 0,-0.15794 -0.23134,-0.28711 -0.51367,-0.28711 -0.28233,0 -0.59486,-0.20999 -0.69336,-0.4668 -0.15349,-0.40001 -0.2154,-0.41029 -0.43164,-0.0684 -0.20868,0.32992 -0.25286,0.31269 -0.25586,-0.10352 -0.003,-0.33547 -0.13922,-0.45162 -0.41015,-0.34765 -0.24529,0.0941 -0.40821,6.4e-4 -0.40821,-0.23438 0,-0.23464 -0.16096,-0.32652 -0.40625,-0.23242 -0.22371,0.0859 -0.40625,0.0237 -0.40625,-0.13672 0,-0.16038 -0.18254,-0.22056 -0.40625,-0.13476 -0.22372,0.0859 -0.4082,0.01 -0.4082,-0.16797 0,-0.17754 -0.14691,-0.27259 -0.32617,-0.21289 -0.40166,0.13389 -1.32432,-0.61907 -1.13477,-0.92578 0.0757,-0.12254 0.0814,-0.22266 0.0137,-0.22266 -0.0677,0 -0.45325,0.64084 -0.85743,1.42383 -1.06033,2.05416 -1.31295,2.18667 -0.68359,0.35742 0.67913,-1.97393 0.71639,-2.53056 0.14062,-2.05273 -0.33515,0.27814 -0.40625,0.25507 -0.40625,-0.13477 0,-0.38984 -0.0711,-0.41486 -0.40625,-0.13672 -0.33315,0.27647 -0.40625,0.25877 -0.40625,-0.10156 0,-0.24197 -0.18448,-0.43945 -0.4082,-0.43945 -0.22371,0 -0.40625,-0.12917 -0.40625,-0.28711 0,-0.15798 -0.12233,-0.2133 -0.27148,-0.1211 -0.14914,0.0922 -0.26953,0.0255 -0.26953,-0.14844 0,-0.17389 -0.18449,-0.24595 -0.40821,-0.16015 -0.22371,0.0858 -0.40625,0.0256 -0.40625,-0.13477 0,-0.16044 -0.17288,-0.22583 -0.38476,-0.14453 -0.21189,0.0813 -0.69819,-0.14217 -1.08008,-0.49609 -0.38189,-0.35393 -0.76165,-0.5333 -0.84375,-0.40039 -0.25737,0.41642 -0.99531,-0.0534 -0.86524,-0.55078 0.0946,-0.36155 -0.005,-0.43872 -0.42773,-0.32813 -0.4163,0.10887 -0.49675,0.0524 -0.33203,-0.23633 0.15093,-0.26451 0.12841,-0.29925 -0.0723,-0.11133 -0.41186,0.38568 -2.22475,3.98734 -2.25195,4.47461 -0.0125,0.22387 -0.0776,0.26899 -0.14648,0.10157 -0.0688,-0.1673 0.24573,-1.23733 0.69921,-2.37891 0.45348,-1.14157 0.81454,-2.22566 0.80274,-2.4082 -0.0162,-0.25127 -0.0525,-0.25306 -0.15234,-0.008 -0.16159,0.39723 -0.91016,0.1498 -0.91016,-0.30079 0,-0.19161 -0.3274,-0.30193 -0.79492,-0.26953 -0.58453,0.0405 -0.75619,-0.0454 -0.64844,-0.32617 0.0987,-0.2572 0.0124,-0.33131 -0.26563,-0.22461 -0.22685,0.0871 -0.79793,-0.0413 -1.26953,-0.28516 -0.27069,-0.13998 -0.48873,-0.23294 -0.67968,-0.25976 z m 129.283203,3.20703 c -0.0285,0.0285 -0.0462,0.12331 -0.0527,0.28125 -0.0118,0.28581 0.0525,0.44557 0.14258,0.35547 0.0901,-0.0901 0.0978,-0.32378 0.0195,-0.51953 -0.0433,-0.10816 -0.0809,-0.1457 -0.10937,-0.11719 z m 0.81445,3.52539 c -0.0285,0.0285 -0.0482,0.1233 -0.0547,0.28125 -0.0118,0.28581 0.0525,0.44557 0.14258,0.35547 0.0901,-0.0901 0.0998,-0.32378 0.0215,-0.51953 -0.0433,-0.10816 -0.0809,-0.1457 -0.10938,-0.11719 z m 0.2793,1.41602 c -0.0248,0.0614 -0.041,0.19248 -0.041,0.3789 0,0.37286 0.0615,0.52628 0.13672,0.33985 0.0752,-0.18643 0.0752,-0.49131 0,-0.67774 -0.0376,-0.0932 -0.0709,-0.10245 -0.0957,-0.041 z m -83.361333,4.74804 c 1.93211,-0.15747 4.69562,0.20735 5.35742,0.86914 0.10222,0.10225 0.34802,0.18555 0.54688,0.18555 0.19886,0 0.60786,0.21361 0.9082,0.47461 1.1432,0.99343 2.96866,2.92483 2.97266,3.14453 0.003,0.12612 0.23137,0.55334 0.50781,0.94922 0.27643,0.39587 0.57662,1.14793 0.66602,1.66992 0.0894,0.522 0.24033,1.25411 0.33593,1.62696 0.46391,1.809 -0.31444,5.65393 -1.42578,7.04687 -0.18015,0.2258 -0.70569,0.89524 -1.16992,1.48828 -0.94164,1.20291 -1.72111,1.78848 -3.51758,2.64258 -1.59143,0.75662 -5.74581,0.97924 -6.7793,0.36328 -0.37285,-0.22222 -0.86222,-0.41192 -1.08593,-0.41992 -0.98536,-0.0352 -4.13982,-2.74498 -4.49414,-3.86133 -0.0839,-0.26421 -0.24787,-0.48047 -0.36524,-0.48047 -0.33216,0 -1.36975,-3.79093 -1.41015,-5.15234 -0.0754,-2.53849 1.54816,-6.31465 3.36523,-7.82813 0.47134,-0.39258 1.07087,-0.92444 1.33203,-1.18164 0.26116,-0.25721 0.81262,-0.54913 1.22656,-0.64843 0.41394,-0.0993 1.0809,-0.34668 1.48243,-0.54883 0.35113,-0.17679 0.90284,-0.28736 1.54687,-0.33985 z m 84.187503,0.48633 c -0.0244,0.0605 -0.04,0.20988 -0.043,0.4336 -0.006,0.44741 0.0507,0.6621 0.125,0.47851 0.0743,-0.18359 0.0786,-0.54866 0.01,-0.8125 -0.0344,-0.13192 -0.0674,-0.16011 -0.0918,-0.0996 z m -84.785163,1.17578 c -0.55813,0.0665 -0.99893,0.21101 -1.61328,0.47071 -1.41305,0.59734 -4.26757,3.07749 -4.26757,3.70703 0,0.18087 -0.21361,0.54182 -0.47461,0.80273 -0.40124,0.40115 -0.47461,0.99774 -0.47461,3.86133 0,2.46792 0.0908,3.4175 0.33789,3.5 0.18642,0.0623 0.33984,0.27534 0.33984,0.47461 0,0.68317 2.73465,3.35919 4.14844,4.05859 1.29474,0.64053 1.65114,0.68979 4.37305,0.61719 2.04078,-0.0545 2.99576,-0.18072 3.07226,-0.41016 0.06106,-0.18327 0.27339,-0.33408 0.47266,-0.33408 0.7663,0 3.43711,-2.80522 4.11523,-4.32227 0.60767,-1.35946 0.66507,-1.78742 0.57617,-4.33593 -0.0665,-1.90593 -0.20702,-2.8633 -0.42968,-2.9375 -0.18168,-0.0606 -0.33008,-0.27339 -0.33008,-0.47266 0,-0.60665 -2.71679,-3.3763 -3.90235,-3.97852 -0.80175,-0.40724 -1.81833,-0.60206 -3.625,-0.69726 -1.08505,-0.0572 -1.76022,-0.0704 -2.31836,-0.004 z m 85.113293,1.83399 c -0.0392,-0.0475 -0.0664,0.35692 -0.0664,1.08398 0,0.9694 0.0492,1.36557 0.10937,0.88086 0.0601,-0.48471 0.0601,-1.27701 0,-1.76172 -0.015,-0.12118 -0.0299,-0.18729 -0.043,-0.20312 z m 0.002,11.75781 c -0.0386,-0.0776 -0.0657,0.33809 -0.0664,1.12109 -0.001,1.04403 0.0475,1.50483 0.10742,1.02344 0.0597,-0.48139 0.0607,-1.33583 0.002,-1.89844 -0.0147,-0.14065 -0.0301,-0.22021 -0.043,-0.24609 z m -45.810553,3.26758 c 0.0328,-0.0205 0.0449,0.0802 0.0449,0.29492 0,0.29829 -0.0974,0.84784 -0.21679,1.2207 -0.17191,0.5368 -0.2168,0.56422 -0.2168,0.13477 0,-0.29828 0.0974,-0.8459 0.2168,-1.21875 0.0859,-0.2684 0.13908,-0.41116 0.17187,-0.43164 z m 45.480473,0.94531 c -0.0244,0.0605 -0.04,0.20988 -0.043,0.43359 -0.006,0.4474 0.0507,0.66406 0.125,0.48047 0.0743,-0.18359 0.0786,-0.55062 0.01,-0.81445 -0.0344,-0.13192 -0.0674,-0.16011 -0.0918,-0.0996 z m -35.70703,0.39453 c 0.30603,0.30603 -1.67006,7.13173 -2.798833,9.66602 -1.11082,2.49399 -2.10762,4.51218 -2.41015,4.88086 -0.47626,0.5804 -0.80715,1.74501 -0.42969,1.51172 0.1895,-0.1171 0.2355,-0.0231 0.12695,0.25976 -0.12447,0.32438 -0.22601,0.35631 -0.375,0.11524 -0.1403,-0.22701 -0.3596,-0.0869 -0.70312,0.45117 -3.61819,5.66776 -9.73454,11.62662 -14.98047,14.59179 -1.93787,1.09535 -2.50844,1.26997 -1.16211,0.35743 2.56502,-1.73858 7.45908,-5.69833 9.17187,-7.42188 4.16049,-4.18662 8.42645,-10.48441 10.53907,-15.55859 0.821423,-1.97294 2.399153,-6.70848 2.695313,-8.08789 0.10636,-0.49538 0.25297,-0.83883 0.32617,-0.76563 z m 5.98828,1.85156 c 0.15548,-0.0781 -0.2898,2.72036 -0.69727,4.1543 -3.03367,10.67605 -10.587993,21.54081 -19.576173,28.15625 -1.7735,1.30531 -4.60937,3.03913 -4.60937,2.81836 0,-0.0653 0.76317,-0.64571 1.69531,-1.29102 4.77597,-3.30631 9.87951,-8.13319 12.98633,-12.2832 3.835773,-5.12376 7.114933,-11.66969 8.921873,-17.80664 0.32935,-1.11856 0.69693,-2.27789 0.81641,-2.57617 0.11948,-0.29829 0.28032,-0.72551 0.35742,-0.94922 0.0486,-0.14091 0.0833,-0.2115 0.10547,-0.22266 z m 4.03711,0.0371 c 0.256,0.25599 -0.48202,3.99943 -1.26562,6.41993 -0.82451,2.54681 -0.97423,2.91964 -2.48047,6.19726 -0.57217,1.24506 -1.03907,2.30738 -1.03907,2.35938 0,0.18463 -2.01783,3.54774 -3.45703,5.76367 -4.15202,6.39286 -10.067643,12.37472 -16.234373,16.41601 -1.06083,0.6952 -2.0376,1.26086 -2.16992,1.25586 -0.13231,-0.005 0.004,-0.14762 0.30273,-0.31836 1.20025,-0.68704 5.60363,-4.10876 7.88281,-6.125 7.818893,-6.91685 13.631333,-16.12148 16.644533,-26.35937 0.32921,-1.11857 0.76122,-2.52257 0.95899,-3.11914 0.19776,-0.59657 0.4372,-1.43554 0.5332,-1.86328 0.096,-0.42774 0.24182,-0.70936 0.32422,-0.62696 z m 9.19531,2.89649 c 0.0658,0 0.11914,0.12234 0.11914,0.27148 0,0.14914 -0.12916,0.27149 -0.28711,0.27149 -0.15798,0 -0.21134,-0.12235 -0.11914,-0.27149 0.0922,-0.14914 0.22131,-0.27148 0.28711,-0.27148 z m 15.67383,0.24414 c -0.0244,0.0605 -0.0419,0.20988 -0.0449,0.43359 -0.006,0.4474 0.0507,0.66406 0.125,0.48047 0.0743,-0.18358 0.0786,-0.55061 0.01,-0.81445 -0.0344,-0.13192 -0.0654,-0.16011 -0.0898,-0.0996 z m -23.6582,0.0293 c 0.0918,-4.7e-4 -0.0462,0.76121 -0.30664,1.69335 -0.5127,1.83487 -1.28749,3.75997 -1.33789,3.32227 -0.0486,-0.42249 1.45699,-5.01462 1.64453,-5.01562 z m 1.67968,0.97461 c -0.0248,0.0614 -0.041,0.19247 -0.041,0.3789 0,0.37286 0.0615,0.52627 0.13672,0.33984 0.0752,-0.18642 0.0752,-0.49325 0,-0.67968 -0.0376,-0.0932 -0.0709,-0.1005 -0.0957,-0.0391 z m 21.68555,0.75195 c -0.0285,0.0285 -0.0482,0.12526 -0.0547,0.2832 -0.0118,0.28581 0.0525,0.44557 0.14258,0.35547 0.0901,-0.0901 0.0998,-0.32378 0.0215,-0.51953 -0.0433,-0.10816 -0.0809,-0.14765 -0.10938,-0.11914 z m -22.15429,0.6914 c 0.0707,0.0296 0.11328,0.15753 0.11328,0.4043 0,0.23614 -0.0978,0.42969 -0.21875,0.42969 -0.22839,0 -1.01919,2.60331 -0.96289,3.16992 0.0176,0.17741 -0.15139,0.39272 -0.375,0.47852 -0.29298,0.11241 -0.36424,0.0226 -0.25782,-0.32227 0.0812,-0.26322 0.37868,-1.26391 0.66211,-2.22461 0.35895,-1.21663 0.82701,-2.02427 1.03907,-1.93555 z m -22.318363,0.12305 c 0.0285,-0.0285 0.068,0.009 0.11132,0.11719 0.0783,0.19574 0.0686,0.43138 -0.0215,0.52148 -0.0901,0.0901 -0.15438,-0.0716 -0.14258,-0.35742 0.007,-0.15795 0.0242,-0.25274 0.0527,-0.28125 z m 43.658203,2.71094 c -0.0285,0.0285 -0.0462,0.1233 -0.0527,0.28125 -0.0118,0.28581 0.0525,0.44752 0.14258,0.35742 0.0901,-0.0901 0.0978,-0.32378 0.0195,-0.51953 -0.0433,-0.10816 -0.0809,-0.14765 -0.10937,-0.11914 z m -20.79102,0.91797 c -0.081,0.0424 -0.18312,0.20349 -0.33593,0.49804 -0.28302,0.54558 -0.29942,0.81731 -0.0684,1.09571 0.45373,0.54672 0.54341,0.45372 0.34179,-0.34961 -0.12689,-0.50554 -0.0878,-0.66053 0.13086,-0.52539 0.35361,0.21855 0.38044,0.11909 0.14063,-0.50586 -0.0685,-0.17862 -0.12802,-0.2553 -0.20899,-0.21289 z m -3.42187,1.55859 c 0.15368,-0.095 0.20002,0.0145 0.10742,0.25586 -0.18027,0.46977 -0.375,0.55411 -0.375,0.16406 0,-0.14034 0.12015,-0.32882 0.26758,-0.41992 z m -16.984383,0.875 c -0.0955,-0.0283 -0.17415,-0.019 -0.21484,0.0469 -0.085,0.13755 -0.002,0.30233 0.18555,0.36523 0.26649,0.0895 0.25545,0.28624 -0.0527,0.9043 -0.21668,0.43454 -0.4432,0.9114 -0.5039,1.06054 -0.0607,0.14914 0.20207,-0.0955 0.58593,-0.54296 0.38386,-0.44742 0.70399,-0.91265 0.70899,-1.03516 0.0126,-0.28664 -0.42238,-0.71406 -0.70899,-0.79883 z m 24.759773,1.65234 c -0.007,-0.0665 -0.031,-0.0572 -0.0762,0.0488 -5.39406,12.6579 -14.02078,23.77051 -23.820323,30.74024 H 114.8965 c 6.44065,-6.89543 11.72809,-14.79504 14.53711,-21.83789 0.81261,-2.03738 1.10357,-3.24748 0.58203,-2.42383 -0.15823,0.24993 -0.41078,0.30418 -0.74218,0.16015 -0.27605,-0.12002 -0.59598,-0.19657 -0.71094,-0.17187 -0.115,0.0247 -0.12714,-0.29195 -0.0273,-0.70313 l 0.18164,-0.74804 -0.59571,0.67773 -0.5957,0.67774 0.10547,-0.8125 c 0.0585,-0.44744 0.0565,-0.66104 -0.006,-0.47461 -0.0624,0.18642 -0.24037,0.33789 -0.39453,0.33789 -0.15419,0 -0.21497,-0.16978 -0.13477,-0.37891 0.22645,-0.59012 -0.1289,-0.75132 -0.50976,-0.23047 -0.32262,0.44095 -0.36975,0.44078 -0.86328,-0.006 -0.50506,-0.45707 -0.54655,-0.42558 -1.24024,0.95313 -1.42862,2.83941 -3.50712,6.58684 -3.86328,6.96289 -0.20038,0.21157 0.21914,-0.76521 0.93359,-2.16992 1.55286,-3.05317 3.09212,-6.95974 2.91407,-7.39453 -0.0704,-0.17172 -0.13664,-0.0989 -0.14844,0.16211 -0.0118,0.261 -0.137,0.47461 -0.27734,0.47461 -0.39517,0 -0.60028,-0.48418 -0.28711,-0.67774 0.15397,-0.0952 0.19986,-0.30196 0.10156,-0.46094 -0.10701,-0.17315 -0.33217,-0.03 -0.5625,0.35742 -0.37824,0.63618 -0.38309,0.63251 -0.24024,-0.23437 0.17746,-1.07698 0.0383,-1.11399 -0.52539,-0.13672 l -0.42968,0.74609 0.1289,-1.08398 c 0.10887,-0.9193 0.0843,-0.99171 -0.16211,-0.47461 -0.39224,0.82314 -0.80164,0.7755 -0.58984,-0.0684 0.21179,-0.84386 -0.0854,-0.88964 -0.44531,-0.0684 -0.21546,0.49165 -0.23838,0.41317 -0.11524,-0.40625 0.20022,-1.33234 -0.0411,-1.28766 -0.71875,0.13477 -0.30197,0.63386 -0.47582,0.84746 -0.38672,0.47461 0.21005,-0.87876 0.34827,-1.74572 0.32813,-1.94532 z m -23.376953,1.70508 c 0.45667,0.45668 -2.22942,4.83318 -2.85547,4.65235 -0.1186,-0.0343 -0.29427,0.18109 -0.38867,0.47851 -0.0944,0.29742 -0.27102,0.4794 -0.39258,0.4043 -0.12156,-0.0751 -0.204,0.0144 -0.1836,0.19922 0.0205,0.18482 -0.0501,0.33594 -0.15625,0.33594 -0.3551,0 -2.90306,2.66313 -2.76367,2.88867 0.0756,0.1224 -0.0272,0.15933 -0.22851,0.082 -0.20133,-0.0773 -0.65536,0.16962 -1.00977,0.54687 -0.35441,0.37725 -0.72216,0.68555 -0.81836,0.68555 -0.0962,0 0.87923,-1.06805 2.16992,-2.37305 2.10481,-2.12815 3.80786,-4.13154 5.23438,-6.16015 0.27028,-0.38436 0.60403,-0.62837 0.74219,-0.54297 0.13816,0.0854 0.19239,-0.003 0.12109,-0.19727 -0.14627,-0.39837 0.29576,-1.23354 0.5293,-1 z m 35.667963,6.07227 c -0.14743,0.0911 -0.26757,0.27958 -0.26757,0.41992 0,0.39006 0.19473,0.30375 0.375,-0.16601 0.0926,-0.24127 0.0463,-0.34891 -0.10743,-0.25391 z m -39.785153,1.51953 c 0.0229,-0.0229 0.0985,0.0351 0.23242,0.16797 0.18532,0.18395 0.26905,0.40283 0.18555,0.48633 -0.0835,0.0835 -0.23606,-0.0665 -0.33789,-0.33399 -0.0736,-0.19323 -0.10295,-0.29744 -0.0801,-0.32031 z m -5.42774,3.15234 c 0.21921,-0.0841 0.38282,0.0152 0.38282,0.23243 0,0.2095 -0.009,0.37895 -0.0215,0.37695 -0.0124,-0.002 -0.18582,-0.10632 -0.38476,-0.23242 -0.29766,-0.18869 -0.29283,-0.2556 0.0234,-0.37696 z m -40.22265,0.10547 c 0.0942,0.004 0.1737,0.0272 0.21875,0.0723 0.0901,0.0901 -0.0696,0.15438 -0.35547,0.14258 -0.3159,-0.013 -0.38038,-0.0755 -0.16406,-0.16211 0.0979,-0.0391 0.20657,-0.0566 0.30078,-0.0527 z m 39.34179,0.89649 c 0,0.0746 -0.24467,0.26614 -0.54296,0.42578 -0.29828,0.15966 -0.54297,0.22889 -0.54297,0.1543 0,-0.0746 0.24469,-0.26615 0.54297,-0.42579 0.29829,-0.15967 0.54296,-0.22889 0.54296,-0.15429 z m 33.843753,0.0117 c 0.0835,0.0835 -2.2e-4,0.30237 -0.18554,0.48632 -0.26781,0.26581 -0.29951,0.23413 -0.15235,-0.15234 0.10183,-0.26744 0.25439,-0.41748 0.33789,-0.33398 z m -66.044923,0.21679 c 0.55929,-0.0585 1.47392,-0.0585 2.03321,0 0.55928,0.0585 0.10098,0.10547 -1.01758,0.10547 -1.11857,0 -1.57491,-0.047 -1.01563,-0.10547 z m 31.24805,1.13867 c 0.0455,0.019 0.0494,0.0696 0.002,0.14649 -0.0911,0.14743 -0.28153,0.26758 -0.42187,0.26758 -0.39006,0 -0.30377,-0.19473 0.16601,-0.375 0.12068,-0.0463 0.20841,-0.0581 0.25391,-0.0391 z m 33.677733,0.20704 c 0.0476,-0.0246 0.0781,-0.004 0.0781,0.0703 0,0.14915 -0.1191,0.45597 -0.26367,0.67969 -0.14458,0.22368 -0.26172,0.2839 -0.26172,0.13476 0,-0.14914 0.11714,-0.45402 0.26172,-0.67773 0.0723,-0.11185 0.1379,-0.18246 0.18554,-0.20703 z m -33.330073,0.52148 c 0.0881,-0.0336 0.16332,-0.032 0.20507,0.01 0.0835,0.0835 -0.0666,0.23409 -0.33398,0.33593 -0.38647,0.14715 -0.41815,0.11547 -0.15234,-0.15234 0.092,-0.0927 0.19312,-0.1598 0.28125,-0.19336 z m 32.279293,1.16992 c 0.0835,0.0835 -2.2e-4,0.30238 -0.18554,0.48633 -0.26781,0.26581 -0.2995,0.23413 -0.15235,-0.15234 0.10183,-0.26744 0.25439,-0.41749 0.33789,-0.33399 z m -72.417973,5.6582 c 0.18642,-0.0752 0.49131,-0.0752 0.67774,0 0.18642,0.0752 0.035,0.13672 -0.33789,0.13672 -0.37286,0 -0.52628,-0.0615 -0.33985,-0.13672 z m 8.94922,1.06641 c 0.48471,-0.0601 1.27701,-0.0601 1.76172,0 0.48471,0.0602 0.0886,0.10938 -0.88086,0.10938 -0.96939,0 -1.36558,-0.0493 -0.88086,-0.10938 z m 57.013673,1.82422 c 0.014,0.014 -0.0696,0.12285 -0.23828,0.33789 -0.35425,0.45166 -0.57617,0.59624 -0.57617,0.37305 0,-0.0563 0.21361,-0.26992 0.47461,-0.47461 0.21505,-0.16865 0.32585,-0.25033 0.33984,-0.23633 z m -76.351563,1.89844 c -0.23257,0 -0.3461,0.12234 -0.2539,0.27148 0.0922,0.14914 0.28153,0.26953 0.42187,0.26953 0.14034,0 0.25586,-0.12039 0.25586,-0.26953 0,-0.14914 -0.19132,-0.27148 -0.42383,-0.27148 z m 85.841803,0 c -0.014,-0.014 -0.1248,0.0677 -0.33985,0.23633 -0.261,0.20469 -0.4746,0.4183 -0.4746,0.4746 0,0.22319 0.22388,0.0787 0.57812,-0.37304 0.16865,-0.21505 0.25033,-0.3239 0.23633,-0.33789 z m -77.689453,1.07812 0.94921,0.17188 c 0.522,0.0946 1.43664,0.26265 2.03321,0.375 l 1.08398,0.20508 -1.08398,0.0137 c -0.59657,0.007 -1.51121,-0.16268 -2.03321,-0.37696 z m 48.94531,0.39453 c 0,0.0746 -0.24468,0.26614 -0.54297,0.42578 -0.29828,0.15966 -0.54102,0.2289 -0.54102,0.1543 0,-0.0746 0.24274,-0.26614 0.54102,-0.42578 0.29829,-0.15967 0.54297,-0.2289 0.54297,-0.1543 z m -44.26758,0.51758 c 0.18643,-0.0752 0.4913,-0.0752 0.67773,0 0.18643,0.0752 0.033,0.13672 -0.33984,0.13672 -0.37286,0 -0.52432,-0.0615 -0.33789,-0.13672 z m 3.12305,0.26172 c 0.26384,-0.0687 0.62891,-0.0645 0.8125,0.01 0.18359,0.0743 -0.0311,0.131 -0.47852,0.125 -0.44742,-0.006 -0.59781,-0.0661 -0.33398,-0.13477 z m 56.058593,0.1875 c 0.014,0.014 -0.0677,0.1248 -0.23633,0.33984 -0.35425,0.45167 -0.57617,0.59428 -0.57617,0.3711 0,-0.0563 0.21361,-0.26992 0.47461,-0.47461 0.21504,-0.16865 0.32389,-0.25033 0.33789,-0.23633 z M 35.439447,343.5 c -0.0189,0.009 -0.007,0.0272 0.0371,0.0547 h 0.33789 c -0.14437,-0.0236 -0.34831,-0.0672 -0.375,-0.0547 z" />
  <path
     id="path1454"
     style="fill:#000000;stroke-width:0.459038"
     d="m 98.669917,6.6367188 c -2.29961,0 -4.18164,0.094296 -4.18164,0.2109374 0,0.1166459 -20.13997,69.0227418 -44.75586,153.1250038 l -13.88476,47.4414 a -82.967201,82.967201 0 0 1 8.09961,-1.69726 C 71.955637,111.15524 102.37936,8.5160016 102.5918,7.6699219 102.84651,6.6554439 102.77669,6.6367188 98.669917,6.6367188 Z M 340.35352,244.10547 c -0.35081,0.13462 -73.00912,22.15741 -161.46485,48.93945 -23.429,7.09367 -22.66332,6.89193 -42.84179,13.00977 a -82.967201,82.967201 0 0 1 -1.91993,7.3125 l 53.65821,-15.80078 153.19922,-45.11524 0.004,-4.29492 c 0.003,-3.47874 -0.11815,-4.24902 -0.63476,-4.05078 z" />
  <path
     id="path1712"
     style="fill:#000000;stroke-width:0.457327"
     d="m 232.33398,7.1035156 -5.37304,0.00391 L 116.51562,171.71484 90.007807,211.22266 a -84.224274,84.224274 0 0 1 5.00586,2.36523 C 108.48305,194.14356 108.40547,194.24224 128.3418,165.46289 188.49271,78.631242 237.70703,7.4784858 237.70703,7.34375 c 0,-0.1347357 -2.41758,-0.2430744 -5.37305,-0.2402344 z m 29.09375,0.091797 C 257.41797,7.0828831 256.63483,7.1808756 255.9707,7.8808595 255.54422,8.33035 201.94043,79.801578 136.85156,166.70508 116.55737,193.8009 116.52891,193.78337 99.738277,216.18359 a -84.224274,84.224274 0 0 1 4.751953,3.08203 c 19.14532,-25.10743 21.35043,-28.00459 45.83204,-60.10742 L 266.10938,7.3261719 Z M 340.37695,81.613281 189.45898,196.70508 c -32.70773,24.94346 -36.17868,27.58265 -61.61132,46.97461 a -84.224274,84.224274 0 0 1 2.86523,4.8789 c 22.40193,-16.79228 22.33347,-16.78522 49.37109,-37.03515 87.40656,-65.46346 159.2888,-119.371088 159.73829,-119.794924 0.70009,-0.660106 0.79995,-1.440882 0.6875,-5.44336 z m 0.0117,28.382809 c -0.0998,0 -114.04002,78.92933 -207.24609,143.47657 a -84.224274,84.224274 0 0 1 2.11133,5.05859 l 40.75,-27.34375 164.59765,-110.44336 0.002,-5.375 c 0.001,-2.95547 -0.0957,-5.37305 -0.21485,-5.37305 z" />
</svg>
